<mxfile host="app.diagrams.net" modified="2023-08-09T08:04:43.457Z" agent="Mozilla/5.0 (Windows NT 10.0; Win64; x64) AppleWebKit/537.36 (KHTML, like Gecko) Chrome/115.0.0.0 Safari/537.36" etag="ZfeMse10HXzNTwpH5sme" version="21.6.7" type="github" pages="2">
  <diagram name="第 1 页" id="Xc9G24RDaqmZXno-PCHf">
    <mxGraphModel dx="1259" dy="702" grid="1" gridSize="10" guides="1" tooltips="1" connect="1" arrows="1" fold="1" page="1" pageScale="1" pageWidth="827" pageHeight="1169" math="0" shadow="0">
      <root>
        <mxCell id="0" />
        <mxCell id="1" parent="0" />
        <mxCell id="TAdzys8bT-mZB0Ie5Mji-37" value="" style="rounded=1;whiteSpace=wrap;html=1;" vertex="1" parent="1">
          <mxGeometry x="277" y="460" width="530" height="250" as="geometry" />
        </mxCell>
        <mxCell id="TAdzys8bT-mZB0Ie5Mji-15" value="" style="rounded=1;whiteSpace=wrap;html=1;" vertex="1" parent="1">
          <mxGeometry x="223" y="160" width="190" height="280" as="geometry" />
        </mxCell>
        <mxCell id="TAdzys8bT-mZB0Ie5Mji-2" value="hub集群" style="rounded=1;whiteSpace=wrap;html=1;" vertex="1" parent="1">
          <mxGeometry x="507" y="370" width="120" height="60" as="geometry" />
        </mxCell>
        <mxCell id="TAdzys8bT-mZB0Ie5Mji-6" value="ccse_backup/job" style="rounded=0;whiteSpace=wrap;html=1;" vertex="1" parent="1">
          <mxGeometry x="507" y="517.5" width="120" height="60" as="geometry" />
        </mxCell>
        <mxCell id="TAdzys8bT-mZB0Ie5Mji-7" value="OSS" style="shape=cylinder3;whiteSpace=wrap;html=1;boundedLbl=1;backgroundOutline=1;size=15;" vertex="1" parent="1">
          <mxGeometry x="827" y="452.5" width="100" height="65" as="geometry" />
        </mxCell>
        <mxCell id="TAdzys8bT-mZB0Ie5Mji-8" value="hostPath" style="shape=cylinder3;whiteSpace=wrap;html=1;boundedLbl=1;backgroundOutline=1;size=15;" vertex="1" parent="1">
          <mxGeometry x="687" y="530" width="100" height="65" as="geometry" />
        </mxCell>
        <mxCell id="TAdzys8bT-mZB0Ie5Mji-9" value="" style="endArrow=classic;html=1;rounded=0;exitX=1;exitY=0.5;exitDx=0;exitDy=0;entryX=0;entryY=0.5;entryDx=0;entryDy=0;entryPerimeter=0;fillColor=#dae8fc;strokeColor=#6c8ebf;" edge="1" parent="1" source="TAdzys8bT-mZB0Ie5Mji-6" target="TAdzys8bT-mZB0Ie5Mji-7">
          <mxGeometry width="50" height="50" relative="1" as="geometry">
            <mxPoint x="707" y="570" as="sourcePoint" />
            <mxPoint x="757" y="520" as="targetPoint" />
          </mxGeometry>
        </mxCell>
        <mxCell id="TAdzys8bT-mZB0Ie5Mji-11" value="ccseone-apiserver" style="rounded=0;whiteSpace=wrap;html=1;" vertex="1" parent="1">
          <mxGeometry x="497" y="130" width="120" height="60" as="geometry" />
        </mxCell>
        <mxCell id="TAdzys8bT-mZB0Ie5Mji-16" value="" style="endArrow=classic;html=1;rounded=0;exitX=0;exitY=0.5;exitDx=0;exitDy=0;entryX=0.994;entryY=0.075;entryDx=0;entryDy=0;entryPerimeter=0;" edge="1" parent="1" source="TAdzys8bT-mZB0Ie5Mji-11" target="TAdzys8bT-mZB0Ie5Mji-15">
          <mxGeometry width="50" height="50" relative="1" as="geometry">
            <mxPoint x="643" y="120" as="sourcePoint" />
            <mxPoint x="363" y="203" as="targetPoint" />
          </mxGeometry>
        </mxCell>
        <mxCell id="TAdzys8bT-mZB0Ie5Mji-18" value="备份计划" style="shape=parallelogram;perimeter=parallelogramPerimeter;whiteSpace=wrap;html=1;fixedSize=1;" vertex="1" parent="1">
          <mxGeometry x="253" y="190" width="100" height="40" as="geometry" />
        </mxCell>
        <mxCell id="TAdzys8bT-mZB0Ie5Mji-19" value="种子集群" style="text;html=1;strokeColor=none;fillColor=none;align=center;verticalAlign=middle;whiteSpace=wrap;rounded=0;" vertex="1" parent="1">
          <mxGeometry x="233" y="160" width="60" height="30" as="geometry" />
        </mxCell>
        <mxCell id="TAdzys8bT-mZB0Ie5Mji-24" value="备份任务:&lt;br&gt;k8sclustertask" style="shape=parallelogram;perimeter=parallelogramPerimeter;whiteSpace=wrap;html=1;fixedSize=1;" vertex="1" parent="1">
          <mxGeometry x="263" y="360" width="110" height="45" as="geometry" />
        </mxCell>
        <mxCell id="TAdzys8bT-mZB0Ie5Mji-25" value="" style="endArrow=classic;html=1;rounded=0;entryX=1;entryY=0.75;entryDx=0;entryDy=0;exitX=0;exitY=0.75;exitDx=0;exitDy=0;fillColor=#d5e8d4;strokeColor=#82b366;" edge="1" parent="1" source="TAdzys8bT-mZB0Ie5Mji-43" target="TAdzys8bT-mZB0Ie5Mji-24">
          <mxGeometry width="50" height="50" relative="1" as="geometry">
            <mxPoint x="137" y="260" as="sourcePoint" />
            <mxPoint x="277" y="210" as="targetPoint" />
          </mxGeometry>
        </mxCell>
        <mxCell id="TAdzys8bT-mZB0Ie5Mji-27" value="etcd" style="shape=cylinder3;whiteSpace=wrap;html=1;boundedLbl=1;backgroundOutline=1;size=15;" vertex="1" parent="1">
          <mxGeometry x="297" y="507.5" width="130" height="80" as="geometry" />
        </mxCell>
        <mxCell id="TAdzys8bT-mZB0Ie5Mji-28" value="kube-apiserver" style="rounded=0;whiteSpace=wrap;html=1;" vertex="1" parent="1">
          <mxGeometry x="297" y="640" width="60" height="60" as="geometry" />
        </mxCell>
        <mxCell id="TAdzys8bT-mZB0Ie5Mji-29" value="ccse-ext-api" style="rounded=0;whiteSpace=wrap;html=1;" vertex="1" parent="1">
          <mxGeometry x="377" y="640" width="80" height="60" as="geometry" />
        </mxCell>
        <mxCell id="TAdzys8bT-mZB0Ie5Mji-30" value="" style="endArrow=classic;html=1;rounded=0;entryX=0;entryY=0.5;entryDx=0;entryDy=0;dashed=1;fillColor=#dae8fc;strokeColor=#6c8ebf;" edge="1" parent="1" source="TAdzys8bT-mZB0Ie5Mji-28" target="TAdzys8bT-mZB0Ie5Mji-29">
          <mxGeometry width="50" height="50" relative="1" as="geometry">
            <mxPoint x="517" y="790" as="sourcePoint" />
            <mxPoint x="567" y="740" as="targetPoint" />
          </mxGeometry>
        </mxCell>
        <mxCell id="TAdzys8bT-mZB0Ie5Mji-31" value="" style="endArrow=classic;html=1;rounded=0;entryX=0.5;entryY=1;entryDx=0;entryDy=0;dashed=1;fillColor=#dae8fc;strokeColor=#6c8ebf;" edge="1" parent="1" source="TAdzys8bT-mZB0Ie5Mji-29" target="TAdzys8bT-mZB0Ie5Mji-6">
          <mxGeometry width="50" height="50" relative="1" as="geometry">
            <mxPoint x="697" y="710" as="sourcePoint" />
            <mxPoint x="747" y="660" as="targetPoint" />
          </mxGeometry>
        </mxCell>
        <mxCell id="TAdzys8bT-mZB0Ie5Mji-33" value="ccse" style="rounded=1;whiteSpace=wrap;html=1;" vertex="1" parent="1">
          <mxGeometry x="120" y="640" width="120" height="60" as="geometry" />
        </mxCell>
        <mxCell id="TAdzys8bT-mZB0Ie5Mji-34" value="" style="endArrow=classic;html=1;rounded=0;exitX=1;exitY=0.5;exitDx=0;exitDy=0;entryX=0;entryY=0.5;entryDx=0;entryDy=0;dashed=1;fillColor=#dae8fc;strokeColor=#6c8ebf;" edge="1" parent="1" source="TAdzys8bT-mZB0Ie5Mji-33" target="TAdzys8bT-mZB0Ie5Mji-28">
          <mxGeometry width="50" height="50" relative="1" as="geometry">
            <mxPoint x="317" y="790" as="sourcePoint" />
            <mxPoint x="367" y="740" as="targetPoint" />
          </mxGeometry>
        </mxCell>
        <mxCell id="TAdzys8bT-mZB0Ie5Mji-35" value="" style="endArrow=classic;html=1;rounded=0;exitX=1;exitY=0.5;exitDx=0;exitDy=0;entryX=0;entryY=0.5;entryDx=0;entryDy=0;entryPerimeter=0;fillColor=#dae8fc;strokeColor=#6c8ebf;" edge="1" parent="1" source="TAdzys8bT-mZB0Ie5Mji-6" target="TAdzys8bT-mZB0Ie5Mji-8">
          <mxGeometry width="50" height="50" relative="1" as="geometry">
            <mxPoint x="747" y="680" as="sourcePoint" />
            <mxPoint x="797" y="630" as="targetPoint" />
          </mxGeometry>
        </mxCell>
        <mxCell id="TAdzys8bT-mZB0Ie5Mji-36" value="" style="endArrow=classic;html=1;rounded=0;exitX=0;exitY=0.5;exitDx=0;exitDy=0;fillColor=#dae8fc;strokeColor=#6c8ebf;" edge="1" parent="1" source="TAdzys8bT-mZB0Ie5Mji-6" target="TAdzys8bT-mZB0Ie5Mji-27">
          <mxGeometry width="50" height="50" relative="1" as="geometry">
            <mxPoint x="597" y="800" as="sourcePoint" />
            <mxPoint x="647" y="750" as="targetPoint" />
          </mxGeometry>
        </mxCell>
        <mxCell id="TAdzys8bT-mZB0Ie5Mji-38" value="工作集群" style="text;html=1;strokeColor=none;fillColor=none;align=center;verticalAlign=middle;whiteSpace=wrap;rounded=0;" vertex="1" parent="1">
          <mxGeometry x="527" y="470" width="60" height="30" as="geometry" />
        </mxCell>
        <mxCell id="TAdzys8bT-mZB0Ie5Mji-41" value="" style="endArrow=classic;html=1;rounded=0;fillColor=#d5e8d4;strokeColor=#82b366;" edge="1" parent="1" source="TAdzys8bT-mZB0Ie5Mji-2" target="TAdzys8bT-mZB0Ie5Mji-6">
          <mxGeometry width="50" height="50" relative="1" as="geometry">
            <mxPoint x="497" y="410" as="sourcePoint" />
            <mxPoint x="547" y="360" as="targetPoint" />
          </mxGeometry>
        </mxCell>
        <mxCell id="TAdzys8bT-mZB0Ie5Mji-42" value="" style="endArrow=classic;html=1;rounded=0;exitX=0.5;exitY=1;exitDx=0;exitDy=0;entryX=0.5;entryY=0;entryDx=0;entryDy=0;fillColor=#d5e8d4;strokeColor=#82b366;" edge="1" parent="1" source="TAdzys8bT-mZB0Ie5Mji-43" target="TAdzys8bT-mZB0Ie5Mji-2">
          <mxGeometry width="50" height="50" relative="1" as="geometry">
            <mxPoint x="377" y="360" as="sourcePoint" />
            <mxPoint x="427" y="310" as="targetPoint" />
          </mxGeometry>
        </mxCell>
        <mxCell id="TAdzys8bT-mZB0Ie5Mji-43" value="ccseone-controller" style="rounded=0;whiteSpace=wrap;html=1;" vertex="1" parent="1">
          <mxGeometry x="507" y="240" width="120" height="60" as="geometry" />
        </mxCell>
        <mxCell id="TAdzys8bT-mZB0Ie5Mji-44" value="" style="endArrow=classic;html=1;rounded=0;entryX=1;entryY=0.75;entryDx=0;entryDy=0;exitX=0;exitY=0;exitDx=0;exitDy=0;fillColor=#f8cecc;strokeColor=#b85450;" edge="1" parent="1" source="TAdzys8bT-mZB0Ie5Mji-43" target="TAdzys8bT-mZB0Ie5Mji-18">
          <mxGeometry width="50" height="50" relative="1" as="geometry">
            <mxPoint x="367" y="290" as="sourcePoint" />
            <mxPoint x="417" y="240" as="targetPoint" />
          </mxGeometry>
        </mxCell>
        <mxCell id="TAdzys8bT-mZB0Ie5Mji-45" value="" style="endArrow=classic;html=1;rounded=0;entryX=1;entryY=0.25;entryDx=0;entryDy=0;exitX=0;exitY=0.25;exitDx=0;exitDy=0;fillColor=#f8cecc;strokeColor=#b85450;" edge="1" parent="1" source="TAdzys8bT-mZB0Ie5Mji-43" target="TAdzys8bT-mZB0Ie5Mji-24">
          <mxGeometry width="50" height="50" relative="1" as="geometry">
            <mxPoint x="507" y="200" as="sourcePoint" />
            <mxPoint x="557" y="150" as="targetPoint" />
          </mxGeometry>
        </mxCell>
        <mxCell id="TAdzys8bT-mZB0Ie5Mji-46" value="?" style="rounded=1;whiteSpace=wrap;html=1;" vertex="1" parent="1">
          <mxGeometry x="807" y="240" width="120" height="60" as="geometry" />
        </mxCell>
        <mxCell id="TAdzys8bT-mZB0Ie5Mji-47" value="" style="endArrow=classic;html=1;rounded=0;exitX=1;exitY=0.25;exitDx=0;exitDy=0;entryX=0;entryY=0.25;entryDx=0;entryDy=0;dashed=1;fillColor=#f8cecc;strokeColor=#b85450;" edge="1" parent="1" source="TAdzys8bT-mZB0Ie5Mji-43" target="TAdzys8bT-mZB0Ie5Mji-46">
          <mxGeometry width="50" height="50" relative="1" as="geometry">
            <mxPoint x="917" y="390" as="sourcePoint" />
            <mxPoint x="967" y="340" as="targetPoint" />
          </mxGeometry>
        </mxCell>
        <mxCell id="TAdzys8bT-mZB0Ie5Mji-48" value="" style="endArrow=classic;html=1;rounded=0;entryX=0;entryY=1;entryDx=0;entryDy=0;exitX=0;exitY=0.75;exitDx=0;exitDy=0;dashed=1;fillColor=#f8cecc;strokeColor=#b85450;" edge="1" parent="1" source="TAdzys8bT-mZB0Ie5Mji-46" target="TAdzys8bT-mZB0Ie5Mji-50">
          <mxGeometry width="50" height="50" relative="1" as="geometry">
            <mxPoint x="897" y="420" as="sourcePoint" />
            <mxPoint x="947" y="370" as="targetPoint" />
          </mxGeometry>
        </mxCell>
        <mxCell id="TAdzys8bT-mZB0Ie5Mji-49" value="创建cronjob" style="text;html=1;strokeColor=none;fillColor=none;align=center;verticalAlign=middle;whiteSpace=wrap;rounded=0;" vertex="1" parent="1">
          <mxGeometry x="657" y="220" width="100" height="30" as="geometry" />
        </mxCell>
        <mxCell id="TAdzys8bT-mZB0Ie5Mji-50" value="cronjob触发" style="text;html=1;strokeColor=none;fillColor=none;align=center;verticalAlign=middle;whiteSpace=wrap;rounded=0;" vertex="1" parent="1">
          <mxGeometry x="654" y="290" width="100" height="30" as="geometry" />
        </mxCell>
        <mxCell id="TAdzys8bT-mZB0Ie5Mji-51" value="一、 controller创建cron：&amp;nbsp; controller单master节点,&amp;nbsp;开的协程会很多?&lt;br&gt;二、&amp;nbsp;寻找集群创建cronjob,&amp;nbsp; job添加备份任务&amp;nbsp; &amp;nbsp;【hub集群/种子集群/独立集群】&lt;br&gt;三、 cronjob管理服务/平台?" style="text;html=1;align=left;verticalAlign=top;whiteSpace=wrap;rounded=0;" vertex="1" parent="1">
          <mxGeometry x="747" y="160" width="423" height="60" as="geometry" />
        </mxCell>
        <mxCell id="TAdzys8bT-mZB0Ie5Mji-53" value="ccse_backup/cronjob" style="rounded=0;whiteSpace=wrap;html=1;" vertex="1" parent="1">
          <mxGeometry x="507" y="640" width="120" height="60" as="geometry" />
        </mxCell>
        <mxCell id="TAdzys8bT-mZB0Ie5Mji-54" value="" style="endArrow=classic;html=1;rounded=0;exitX=1;exitY=0.5;exitDx=0;exitDy=0;entryX=0;entryY=0.5;entryDx=0;entryDy=0;dashed=1;fillColor=#dae8fc;strokeColor=#6c8ebf;" edge="1" parent="1" source="TAdzys8bT-mZB0Ie5Mji-29" target="TAdzys8bT-mZB0Ie5Mji-53">
          <mxGeometry width="50" height="50" relative="1" as="geometry">
            <mxPoint x="217" y="680" as="sourcePoint" />
            <mxPoint x="307" y="680" as="targetPoint" />
          </mxGeometry>
        </mxCell>
      </root>
    </mxGraphModel>
  </diagram>
  <diagram name="第 1 页 的副本" id="dZijaMK6ApFvlrBsASXL">
    <mxGraphModel dx="868" dy="484" grid="1" gridSize="10" guides="1" tooltips="1" connect="1" arrows="1" fold="1" page="1" pageScale="1" pageWidth="827" pageHeight="1169" math="0" shadow="0">
      <root>
        <mxCell id="MokmEjKXZrttjGDyU7k--0" />
        <mxCell id="MokmEjKXZrttjGDyU7k--1" parent="MokmEjKXZrttjGDyU7k--0" />
        <mxCell id="MokmEjKXZrttjGDyU7k--2" value="" style="rounded=1;whiteSpace=wrap;html=1;" vertex="1" parent="MokmEjKXZrttjGDyU7k--1">
          <mxGeometry x="450" y="470" width="530" height="250" as="geometry" />
        </mxCell>
        <mxCell id="MokmEjKXZrttjGDyU7k--3" value="" style="rounded=1;whiteSpace=wrap;html=1;" vertex="1" parent="MokmEjKXZrttjGDyU7k--1">
          <mxGeometry x="396" y="170" width="190" height="170" as="geometry" />
        </mxCell>
        <mxCell id="MokmEjKXZrttjGDyU7k--4" value="hub集群" style="rounded=1;whiteSpace=wrap;html=1;" vertex="1" parent="MokmEjKXZrttjGDyU7k--1">
          <mxGeometry x="680" y="380" width="120" height="60" as="geometry" />
        </mxCell>
        <mxCell id="MokmEjKXZrttjGDyU7k--5" value="ccse_backup/cronjob" style="rounded=0;whiteSpace=wrap;html=1;" vertex="1" parent="MokmEjKXZrttjGDyU7k--1">
          <mxGeometry x="680" y="527.5" width="120" height="60" as="geometry" />
        </mxCell>
        <mxCell id="MokmEjKXZrttjGDyU7k--6" value="OSS" style="shape=cylinder3;whiteSpace=wrap;html=1;boundedLbl=1;backgroundOutline=1;size=15;" vertex="1" parent="MokmEjKXZrttjGDyU7k--1">
          <mxGeometry x="1000" y="462.5" width="100" height="65" as="geometry" />
        </mxCell>
        <mxCell id="MokmEjKXZrttjGDyU7k--7" value="hostPath" style="shape=cylinder3;whiteSpace=wrap;html=1;boundedLbl=1;backgroundOutline=1;size=15;" vertex="1" parent="MokmEjKXZrttjGDyU7k--1">
          <mxGeometry x="860" y="540" width="100" height="65" as="geometry" />
        </mxCell>
        <mxCell id="MokmEjKXZrttjGDyU7k--8" value="" style="endArrow=classic;html=1;rounded=0;exitX=1;exitY=0.5;exitDx=0;exitDy=0;entryX=0;entryY=0.5;entryDx=0;entryDy=0;entryPerimeter=0;fillColor=#dae8fc;strokeColor=#6c8ebf;" edge="1" parent="MokmEjKXZrttjGDyU7k--1" source="MokmEjKXZrttjGDyU7k--5" target="MokmEjKXZrttjGDyU7k--6">
          <mxGeometry width="50" height="50" relative="1" as="geometry">
            <mxPoint x="880" y="580" as="sourcePoint" />
            <mxPoint x="930" y="530" as="targetPoint" />
          </mxGeometry>
        </mxCell>
        <mxCell id="MokmEjKXZrttjGDyU7k--9" value="ccseone-apiserver" style="rounded=0;whiteSpace=wrap;html=1;" vertex="1" parent="MokmEjKXZrttjGDyU7k--1">
          <mxGeometry x="670" y="140" width="120" height="60" as="geometry" />
        </mxCell>
        <mxCell id="MokmEjKXZrttjGDyU7k--10" value="" style="endArrow=classic;html=1;rounded=0;exitX=0;exitY=0.5;exitDx=0;exitDy=0;entryX=0.994;entryY=0.075;entryDx=0;entryDy=0;entryPerimeter=0;" edge="1" parent="MokmEjKXZrttjGDyU7k--1" source="MokmEjKXZrttjGDyU7k--9" target="MokmEjKXZrttjGDyU7k--3">
          <mxGeometry width="50" height="50" relative="1" as="geometry">
            <mxPoint x="816" y="130" as="sourcePoint" />
            <mxPoint x="536" y="213" as="targetPoint" />
          </mxGeometry>
        </mxCell>
        <mxCell id="MokmEjKXZrttjGDyU7k--11" value="备份计划" style="shape=parallelogram;perimeter=parallelogramPerimeter;whiteSpace=wrap;html=1;fixedSize=1;" vertex="1" parent="MokmEjKXZrttjGDyU7k--1">
          <mxGeometry x="426" y="200" width="100" height="40" as="geometry" />
        </mxCell>
        <mxCell id="MokmEjKXZrttjGDyU7k--12" value="种子集群" style="text;html=1;strokeColor=none;fillColor=none;align=center;verticalAlign=middle;whiteSpace=wrap;rounded=0;" vertex="1" parent="MokmEjKXZrttjGDyU7k--1">
          <mxGeometry x="406" y="170" width="60" height="30" as="geometry" />
        </mxCell>
        <mxCell id="MokmEjKXZrttjGDyU7k--15" value="etcd" style="shape=cylinder3;whiteSpace=wrap;html=1;boundedLbl=1;backgroundOutline=1;size=15;" vertex="1" parent="MokmEjKXZrttjGDyU7k--1">
          <mxGeometry x="470" y="517.5" width="130" height="80" as="geometry" />
        </mxCell>
        <mxCell id="MokmEjKXZrttjGDyU7k--16" value="kube-apiserver" style="rounded=0;whiteSpace=wrap;html=1;" vertex="1" parent="MokmEjKXZrttjGDyU7k--1">
          <mxGeometry x="470" y="650" width="60" height="60" as="geometry" />
        </mxCell>
        <mxCell id="MokmEjKXZrttjGDyU7k--17" value="ccse-ext-api" style="rounded=0;whiteSpace=wrap;html=1;" vertex="1" parent="MokmEjKXZrttjGDyU7k--1">
          <mxGeometry x="550" y="650" width="80" height="60" as="geometry" />
        </mxCell>
        <mxCell id="MokmEjKXZrttjGDyU7k--18" value="" style="endArrow=classic;html=1;rounded=0;entryX=0;entryY=0.5;entryDx=0;entryDy=0;dashed=1;fillColor=#dae8fc;strokeColor=#6c8ebf;" edge="1" parent="MokmEjKXZrttjGDyU7k--1" source="MokmEjKXZrttjGDyU7k--16" target="MokmEjKXZrttjGDyU7k--17">
          <mxGeometry width="50" height="50" relative="1" as="geometry">
            <mxPoint x="690" y="800" as="sourcePoint" />
            <mxPoint x="740" y="750" as="targetPoint" />
          </mxGeometry>
        </mxCell>
        <mxCell id="MokmEjKXZrttjGDyU7k--19" value="" style="endArrow=classic;html=1;rounded=0;entryX=0.5;entryY=1;entryDx=0;entryDy=0;dashed=1;fillColor=#dae8fc;strokeColor=#6c8ebf;" edge="1" parent="MokmEjKXZrttjGDyU7k--1" source="MokmEjKXZrttjGDyU7k--17" target="MokmEjKXZrttjGDyU7k--5">
          <mxGeometry width="50" height="50" relative="1" as="geometry">
            <mxPoint x="870" y="720" as="sourcePoint" />
            <mxPoint x="920" y="670" as="targetPoint" />
          </mxGeometry>
        </mxCell>
        <mxCell id="MokmEjKXZrttjGDyU7k--20" value="ccse" style="rounded=1;whiteSpace=wrap;html=1;" vertex="1" parent="MokmEjKXZrttjGDyU7k--1">
          <mxGeometry x="260" y="650" width="120" height="60" as="geometry" />
        </mxCell>
        <mxCell id="MokmEjKXZrttjGDyU7k--21" value="" style="endArrow=classic;html=1;rounded=0;exitX=1;exitY=0.5;exitDx=0;exitDy=0;entryX=0;entryY=0.5;entryDx=0;entryDy=0;dashed=1;fillColor=#dae8fc;strokeColor=#6c8ebf;" edge="1" parent="MokmEjKXZrttjGDyU7k--1" source="MokmEjKXZrttjGDyU7k--20" target="MokmEjKXZrttjGDyU7k--16">
          <mxGeometry width="50" height="50" relative="1" as="geometry">
            <mxPoint x="490" y="800" as="sourcePoint" />
            <mxPoint x="540" y="750" as="targetPoint" />
          </mxGeometry>
        </mxCell>
        <mxCell id="MokmEjKXZrttjGDyU7k--22" value="" style="endArrow=classic;html=1;rounded=0;exitX=1;exitY=0.5;exitDx=0;exitDy=0;entryX=0;entryY=0.5;entryDx=0;entryDy=0;entryPerimeter=0;fillColor=#dae8fc;strokeColor=#6c8ebf;" edge="1" parent="MokmEjKXZrttjGDyU7k--1" source="MokmEjKXZrttjGDyU7k--5" target="MokmEjKXZrttjGDyU7k--7">
          <mxGeometry width="50" height="50" relative="1" as="geometry">
            <mxPoint x="920" y="690" as="sourcePoint" />
            <mxPoint x="970" y="640" as="targetPoint" />
          </mxGeometry>
        </mxCell>
        <mxCell id="MokmEjKXZrttjGDyU7k--23" value="" style="endArrow=classic;html=1;rounded=0;exitX=0;exitY=0.5;exitDx=0;exitDy=0;fillColor=#dae8fc;strokeColor=#6c8ebf;" edge="1" parent="MokmEjKXZrttjGDyU7k--1" source="MokmEjKXZrttjGDyU7k--5" target="MokmEjKXZrttjGDyU7k--15">
          <mxGeometry width="50" height="50" relative="1" as="geometry">
            <mxPoint x="770" y="810" as="sourcePoint" />
            <mxPoint x="820" y="760" as="targetPoint" />
          </mxGeometry>
        </mxCell>
        <mxCell id="MokmEjKXZrttjGDyU7k--24" value="工作集群" style="text;html=1;strokeColor=none;fillColor=none;align=center;verticalAlign=middle;whiteSpace=wrap;rounded=0;" vertex="1" parent="MokmEjKXZrttjGDyU7k--1">
          <mxGeometry x="700" y="480" width="60" height="30" as="geometry" />
        </mxCell>
        <mxCell id="MokmEjKXZrttjGDyU7k--25" value="" style="endArrow=classic;html=1;rounded=0;" edge="1" parent="MokmEjKXZrttjGDyU7k--1" source="MokmEjKXZrttjGDyU7k--4" target="MokmEjKXZrttjGDyU7k--5">
          <mxGeometry width="50" height="50" relative="1" as="geometry">
            <mxPoint x="670" y="420" as="sourcePoint" />
            <mxPoint x="720" y="370" as="targetPoint" />
          </mxGeometry>
        </mxCell>
        <mxCell id="MokmEjKXZrttjGDyU7k--26" value="" style="endArrow=classic;html=1;rounded=0;exitX=0.5;exitY=1;exitDx=0;exitDy=0;entryX=0.5;entryY=0;entryDx=0;entryDy=0;" edge="1" parent="MokmEjKXZrttjGDyU7k--1" source="MokmEjKXZrttjGDyU7k--27" target="MokmEjKXZrttjGDyU7k--4">
          <mxGeometry width="50" height="50" relative="1" as="geometry">
            <mxPoint x="550" y="370" as="sourcePoint" />
            <mxPoint x="600" y="320" as="targetPoint" />
          </mxGeometry>
        </mxCell>
        <mxCell id="MokmEjKXZrttjGDyU7k--27" value="ccseone-controller" style="rounded=0;whiteSpace=wrap;html=1;" vertex="1" parent="MokmEjKXZrttjGDyU7k--1">
          <mxGeometry x="680" y="250" width="120" height="60" as="geometry" />
        </mxCell>
        <mxCell id="MokmEjKXZrttjGDyU7k--28" value="" style="endArrow=classic;html=1;rounded=0;entryX=1;entryY=0.75;entryDx=0;entryDy=0;exitX=0;exitY=0;exitDx=0;exitDy=0;" edge="1" parent="MokmEjKXZrttjGDyU7k--1" source="MokmEjKXZrttjGDyU7k--27" target="MokmEjKXZrttjGDyU7k--11">
          <mxGeometry width="50" height="50" relative="1" as="geometry">
            <mxPoint x="540" y="300" as="sourcePoint" />
            <mxPoint x="590" y="250" as="targetPoint" />
          </mxGeometry>
        </mxCell>
        <mxCell id="-pwqoc_ponCHKeUybTC4-0" value="" style="endArrow=classic;html=1;rounded=0;fillColor=#f8cecc;strokeColor=#b85450;edgeStyle=orthogonalEdgeStyle;" edge="1" parent="MokmEjKXZrttjGDyU7k--1">
          <mxGeometry width="50" height="50" relative="1" as="geometry">
            <mxPoint x="800" y="530" as="sourcePoint" />
            <mxPoint x="790" y="170" as="targetPoint" />
            <Array as="points">
              <mxPoint x="800" y="450" />
              <mxPoint x="900" y="450" />
              <mxPoint x="900" y="170" />
            </Array>
          </mxGeometry>
        </mxCell>
        <mxCell id="Eh31dEC6YWHEgluUaaXk-0" value="备份任务" style="shape=parallelogram;perimeter=parallelogramPerimeter;whiteSpace=wrap;html=1;fixedSize=1;" vertex="1" parent="MokmEjKXZrttjGDyU7k--1">
          <mxGeometry x="426" y="280" width="100" height="40" as="geometry" />
        </mxCell>
        <mxCell id="Eh31dEC6YWHEgluUaaXk-3" value="" style="endArrow=classic;html=1;rounded=0;exitX=0;exitY=0.929;exitDx=0;exitDy=0;exitPerimeter=0;entryX=1;entryY=0;entryDx=0;entryDy=0;fillColor=#f8cecc;strokeColor=#b85450;" edge="1" parent="MokmEjKXZrttjGDyU7k--1" source="MokmEjKXZrttjGDyU7k--9" target="Eh31dEC6YWHEgluUaaXk-0">
          <mxGeometry width="50" height="50" relative="1" as="geometry">
            <mxPoint x="590" y="430" as="sourcePoint" />
            <mxPoint x="640" y="380" as="targetPoint" />
          </mxGeometry>
        </mxCell>
        <mxCell id="Eh31dEC6YWHEgluUaaXk-4" value="网络连通性、&amp;nbsp;&lt;br&gt;依赖工作集群上报，不可控" style="text;html=1;strokeColor=none;fillColor=none;align=left;verticalAlign=middle;whiteSpace=wrap;rounded=0;" vertex="1" parent="MokmEjKXZrttjGDyU7k--1">
          <mxGeometry x="910" y="270" width="160" height="40" as="geometry" />
        </mxCell>
      </root>
    </mxGraphModel>
  </diagram>
</mxfile>
